<svg xmlns="http://www.w3.org/2000/svg" width="160" height="190" viewBox="0 0 160 190"><defs><linearGradient id="wood" x2="0.8" y2="1"><stop stop-color="#d99a51"/><stop offset="1" stop-color="#89502d"/></linearGradient><linearGradient id="cream" x2="0.8" y2="1"><stop stop-color="#fff9de"/><stop offset="1" stop-color="#d9c499"/></linearGradient><linearGradient id="metal" x2="1" y2="1"><stop stop-color="#edf0e6"/><stop offset="1" stop-color="#8d9d93"/></linearGradient><linearGradient id="leaf"><stop stop-color="#84a944"/><stop offset="1" stop-color="#356b4a"/></linearGradient><pattern id="cloth" width="20" height="20" patternUnits="userSpaceOnUse"><rect width="20" height="20" fill="#fff5dc"/><rect width="10" height="20" fill="#de7562" opacity=".7"/><rect width="20" height="10" fill="#cf6556" opacity=".65"/></pattern></defs><ellipse cx="80" cy="172" rx="55" ry="14" fill="#4e4732" opacity=".16"/><path d="m46 132 7 34q27 22 54 0l8-34z" fill="#b97140" stroke="#885533" stroke-width="2"/><ellipse cx="80" cy="132" rx="35" ry="17" fill="#d58f4d"/><ellipse cx="80" cy="130" rx="28" ry="12" fill="#624b34"/><g stroke="#456e41" stroke-width="4" fill="none"><path d="M79 137q2-50-20-69M80 137q-1-56 32-80M80 137q4-64-3-93"/></g><ellipse cx="57" cy="81" rx="13" ry="31" transform="rotate(-47 57 81)" fill="url(#leaf)" stroke="#4e7e43" stroke-width="1.5"/><path d="M57 64v34" transform="rotate(-47 57 81)" stroke="#abc569" stroke-width="1.5"/><ellipse cx="106" cy="78" rx="13" ry="31" transform="rotate(43 106 78)" fill="url(#leaf)" stroke="#4e7e43" stroke-width="1.5"/><path d="M106 61v34" transform="rotate(43 106 78)" stroke="#abc569" stroke-width="1.5"/><ellipse cx="80" cy="50" rx="13" ry="31" transform="rotate(8 80 50)" fill="url(#leaf)" stroke="#4e7e43" stroke-width="1.5"/><path d="M80 33v34" transform="rotate(8 80 50)" stroke="#abc569" stroke-width="1.5"/><ellipse cx="54" cy="111" rx="13" ry="31" transform="rotate(-70 54 111)" fill="url(#leaf)" stroke="#4e7e43" stroke-width="1.5"/><path d="M54 94v34" transform="rotate(-70 54 111)" stroke="#abc569" stroke-width="1.5"/><ellipse cx="101" cy="113" rx="13" ry="31" transform="rotate(68 101 113)" fill="url(#leaf)" stroke="#4e7e43" stroke-width="1.5"/><path d="M101 96v34" transform="rotate(68 101 113)" stroke="#abc569" stroke-width="1.5"/><ellipse cx="36" cy="96" rx="13" ry="31" transform="rotate(-60 36 96)" fill="url(#leaf)" stroke="#4e7e43" stroke-width="1.5"/><path d="M36 79v34" transform="rotate(-60 36 96)" stroke="#abc569" stroke-width="1.5"/><ellipse cx="116" cy="96" rx="13" ry="31" transform="rotate(62 116 96)" fill="url(#leaf)" stroke="#4e7e43" stroke-width="1.5"/><path d="M116 79v34" transform="rotate(62 116 96)" stroke="#abc569" stroke-width="1.5"/></svg>