<svg xmlns="http://www.w3.org/2000/svg" width="160" height="190" viewBox="0 0 160 190"><defs><linearGradient id="wood" x2="0.8" y2="1"><stop stop-color="#d99a51"/><stop offset="1" stop-color="#89502d"/></linearGradient><linearGradient id="cream" x2="0.8" y2="1"><stop stop-color="#fff9de"/><stop offset="1" stop-color="#d9c499"/></linearGradient><linearGradient id="metal" x2="1" y2="1"><stop stop-color="#edf0e6"/><stop offset="1" stop-color="#8d9d93"/></linearGradient><linearGradient id="leaf"><stop stop-color="#84a944"/><stop offset="1" stop-color="#356b4a"/></linearGradient><pattern id="cloth" width="20" height="20" patternUnits="userSpaceOnUse"><rect width="20" height="20" fill="#fff5dc"/><rect width="10" height="20" fill="#de7562" opacity=".7"/><rect width="20" height="10" fill="#cf6556" opacity=".65"/></pattern></defs><ellipse cx="80" cy="172" rx="55" ry="14" fill="#4e4732" opacity=".16"/><path d="m12 90 85-44q10-5 17 4l38 25v68l-88 44-52-27z" fill="#426b51" stroke="#30503e" stroke-width="3"/><path d="m25 96 70-35 26 17v31l-73 36-23-14z" fill="#7c9c63"/><path d="m27 137 84-42 30 16-84 43z" fill="#a7bb7a"/><path d="m63 120 19 21M103 100l19 21" stroke="#668657" stroke-width="3"/><path d="m17 111 17-8 15 9v43l-17 8-15-9zM122 91l16-8 14 8v44l-16 8-14-8z" fill="#668e5a" stroke="#35583f" stroke-width="2"/></svg>